<svg width="14" height="12" viewBox="0 0 14 12" fill="none" xmlns="http://www.w3.org/2000/svg">
<path d="M2.77014 7.29474C4.4455 7.29474 5.54028 5.96842 5.54028 3.63158C5.54028 1.31053 4.4455 0 2.77014 0C1.09479 0 0 1.31053 0 3.63158C0 5.96842 1.09479 7.29474 2.77014 7.29474ZM2.77014 6.41053C1.80806 6.41053 1.14455 5.46316 1.14455 3.63158C1.14455 1.78421 1.80806 0.88421 2.77014 0.88421C3.73223 0.88421 4.37915 1.78421 4.37915 3.63158C4.37915 5.46316 3.73223 6.41053 2.77014 6.41053ZM3.11848 12H4.14692L10.8483 0H9.81991L3.11848 12ZM11.2464 12C12.8886 12 14 10.6737 14 8.32105C14 6.01579 12.8886 4.68947 11.2464 4.68947C9.57109 4.68947 8.4763 6.01579 8.4763 8.32105C8.4763 10.6737 9.57109 12 11.2464 12ZM11.2464 11.1158C10.2844 11.1158 9.62085 10.1684 9.62085 8.32105C9.62085 6.47368 10.2844 5.58947 11.2464 5.58947C12.1919 5.58947 12.8555 6.47368 12.8555 8.32105C12.8555 10.1684 12.1919 11.1158 11.2464 11.1158Z" fill="white"/>
</svg>
